<svg xmlns="http://www.w3.org/2000/svg" width="14.926" height="8.573" viewBox="0 0 14.926 8.573">
  <g id="Grupo_2865" data-name="Grupo 2865" transform="translate(17197.957 23393)">
    <rect id="Retângulo_17265" data-name="Retângulo 17265" width="14.926" height="8.512" transform="translate(-17197.957 -23392.971)" fill="#fff"/>
    <rect id="Retângulo_17266" data-name="Retângulo 17266" width="14.913" height="0.631" transform="translate(-17197.957 -23393)" fill="#b22234"/>
    <rect id="Retângulo_17267" data-name="Retângulo 17267" width="14.913" height="0.631" transform="translate(-17197.957 -23391.676)" fill="#b22234"/>
    <rect id="Retângulo_17268" data-name="Retângulo 17268" width="14.913" height="0.631" transform="translate(-17197.957 -23390.354)" fill="#b22234"/>
    <rect id="Retângulo_17269" data-name="Retângulo 17269" width="14.913" height="0.631" transform="translate(-17197.957 -23389.029)" fill="#b22234"/>
    <rect id="Retângulo_17270" data-name="Retângulo 17270" width="14.913" height="0.631" transform="translate(-17197.957 -23387.705)" fill="#b22234"/>
    <rect id="Retângulo_17271" data-name="Retângulo 17271" width="14.913" height="0.631" transform="translate(-17197.957 -23386.383)" fill="#b22234"/>
    <rect id="Retângulo_17272" data-name="Retângulo 17272" width="14.913" height="0.631" transform="translate(-17197.957 -23385.059)" fill="#b22234"/>
    <rect id="Retângulo_17273" data-name="Retângulo 17273" width="6.081" height="4.336" transform="translate(-17197.957 -23393)" fill="#3c3b6e"/>
    <g id="Grupo_2269" data-name="Grupo 2269" transform="translate(-17197.682 -23392.834)">
      <path id="Caminho_8981" data-name="Caminho 8981" d="M36.3,21.68l.057.177h.184l-.149.109.057.177-.149-.109-.149.109.057-.177-.149-.109h.184Z" transform="translate(-36.06 -21.68)" fill="#fff"/>
      <path id="Caminho_8982" data-name="Caminho 8982" d="M101.751,79.79l.057.177h.184l-.149.109.057.177-.149-.109-.149.109.057-.177-.149-.109h.184Z" transform="translate(-101.009 -79.345)" fill="#fff"/>
      <path id="Caminho_8983" data-name="Caminho 8983" d="M101.751,193.31l.057.177h.184l-.149.109.057.177-.149-.109-.149.109.057-.177-.149-.109h.184Z" transform="translate(-101.009 -191.996)" fill="#fff"/>
      <path id="Caminho_8984" data-name="Caminho 8984" d="M101.751,306.83l.057.177h.184l-.149.109.057.177-.149-.109-.149.109.057-.177-.149-.109h.184Z" transform="translate(-101.009 -304.647)" fill="#fff"/>
      <path id="Caminho_8985" data-name="Caminho 8985" d="M101.751,420.35l.057.177h.184l-.149.109.057.177-.149-.109-.149.109.057-.177-.149-.109h.184Z" transform="translate(-101.009 -417.297)" fill="#fff"/>
      <path id="Caminho_8986" data-name="Caminho 8986" d="M234.421,79.79l.057.177h.184l-.149.109.057.177-.149-.109-.149.109.057-.177-.149-.109h.184Z" transform="translate(-232.663 -79.345)" fill="#fff"/>
      <path id="Caminho_8987" data-name="Caminho 8987" d="M234.421,193.31l.057.177h.184l-.149.109.057.177-.149-.109-.149.109.057-.177-.149-.109h.184Z" transform="translate(-232.663 -191.996)" fill="#fff"/>
      <path id="Caminho_8988" data-name="Caminho 8988" d="M234.421,306.83l.057.177h.184l-.149.109.057.177-.149-.109-.149.109.057-.177-.149-.109h.184Z" transform="translate(-232.663 -304.647)" fill="#fff"/>
      <path id="Caminho_8989" data-name="Caminho 8989" d="M234.421,420.35l.057.177h.184l-.149.109.057.177-.149-.109-.149.109.057-.177-.149-.109h.184Z" transform="translate(-232.663 -417.297)" fill="#fff"/>
      <path id="Caminho_8990" data-name="Caminho 8990" d="M367.091,79.79l.057.177h.184l-.149.109.057.177-.149-.109-.149.109.057-.177-.149-.109h.184Z" transform="translate(-364.317 -79.345)" fill="#fff"/>
      <path id="Caminho_8991" data-name="Caminho 8991" d="M367.091,193.31l.057.177h.184l-.149.109.057.177-.149-.109-.149.109L367,193.6l-.149-.109h.184Z" transform="translate(-364.317 -191.996)" fill="#fff"/>
      <path id="Caminho_8992" data-name="Caminho 8992" d="M367.091,306.83l.057.177h.184l-.149.109.057.177-.149-.109-.149.109.057-.177-.149-.109h.184Z" transform="translate(-364.317 -304.647)" fill="#fff"/>
      <path id="Caminho_8993" data-name="Caminho 8993" d="M367.091,420.35l.057.177h.184l-.149.109.057.177-.149-.109-.149.109.057-.177-.149-.109h.184Z" transform="translate(-364.317 -417.297)" fill="#fff"/>
      <path id="Caminho_8994" data-name="Caminho 8994" d="M499.761,79.79l.057.177H500l-.149.109.057.177-.149-.109-.149.109.057-.177-.149-.109h.184Z" transform="translate(-495.971 -79.345)" fill="#fff"/>
      <path id="Caminho_8995" data-name="Caminho 8995" d="M499.761,193.31l.057.177H500l-.149.109.057.177-.149-.109-.149.109.057-.177-.149-.109h.184Z" transform="translate(-495.971 -191.996)" fill="#fff"/>
      <path id="Caminho_8996" data-name="Caminho 8996" d="M499.761,306.83l.057.177H500l-.149.109.057.177-.149-.109-.149.109.057-.177-.149-.109h.184Z" transform="translate(-495.971 -304.647)" fill="#fff"/>
      <path id="Caminho_8997" data-name="Caminho 8997" d="M499.761,420.35l.057.177H500l-.149.109.057.177-.149-.109-.149.109.057-.177-.149-.109h.184Z" transform="translate(-495.971 -417.297)" fill="#fff"/>
      <path id="Caminho_8998" data-name="Caminho 8998" d="M632.441,79.79l.057.177h.184l-.149.109.057.177-.149-.109-.149.109.057-.177-.149-.109h.184Z" transform="translate(-627.636 -79.345)" fill="#fff"/>
      <path id="Caminho_8999" data-name="Caminho 8999" d="M632.441,193.31l.057.177h.184l-.149.109.057.177-.149-.109-.149.109.057-.177-.149-.109h.184Z" transform="translate(-627.636 -191.996)" fill="#fff"/>
      <path id="Caminho_9000" data-name="Caminho 9000" d="M632.441,306.83l.057.177h.184l-.149.109.057.177-.149-.109-.149.109.057-.177-.149-.109h.184Z" transform="translate(-627.636 -304.647)" fill="#fff"/>
      <path id="Caminho_9001" data-name="Caminho 9001" d="M632.441,420.35l.057.177h.184l-.149.109.057.177-.149-.109-.149.109.057-.177-.149-.109h.184Z" transform="translate(-627.636 -417.297)" fill="#fff"/>
      <path id="Caminho_9002" data-name="Caminho 9002" d="M36.3,135.2l.057.177h.184l-.149.109.057.177-.149-.109-.149.109.057-.177-.149-.109h.184Z" transform="translate(-36.06 -134.331)" fill="#fff"/>
      <path id="Caminho_9003" data-name="Caminho 9003" d="M36.3,248.73l.057.177h.184l-.149.109.057.177-.149-.109-.149.109.057-.177-.149-.109h.184Z" transform="translate(-36.06 -246.992)" fill="#fff"/>
      <path id="Caminho_9004" data-name="Caminho 9004" d="M36.3,362.25l.057.177h.184l-.149.109.057.177L36.3,362.6l-.149.109.057-.177-.149-.109h.184Z" transform="translate(-36.06 -359.642)" fill="#fff"/>
      <path id="Caminho_9005" data-name="Caminho 9005" d="M36.3,475.77l.057.177h.184l-.149.109.057.177-.149-.109-.149.109.057-.177-.149-.109h.184Z" transform="translate(-36.06 -472.293)" fill="#fff"/>
      <path id="Caminho_9006" data-name="Caminho 9006" d="M167.2,21.68l.057.177h.184l-.149.109.057.177-.149-.109-.149.109.057-.177-.149-.109h.184Z" transform="translate(-165.958 -21.68)" fill="#fff"/>
      <path id="Caminho_9007" data-name="Caminho 9007" d="M167.2,135.2l.057.177h.184l-.149.109.057.177-.149-.109-.149.109.057-.177-.149-.109h.184Z" transform="translate(-165.958 -134.331)" fill="#fff"/>
      <path id="Caminho_9008" data-name="Caminho 9008" d="M167.2,248.73l.057.177h.184l-.149.109.057.177-.149-.109-.149.109.057-.177-.149-.109h.184Z" transform="translate(-165.958 -246.992)" fill="#fff"/>
      <path id="Caminho_9009" data-name="Caminho 9009" d="M167.2,362.25l.057.177h.184l-.149.109.057.177-.149-.109-.149.109.057-.177-.149-.109h.184Z" transform="translate(-165.958 -359.642)" fill="#fff"/>
      <path id="Caminho_9010" data-name="Caminho 9010" d="M167.2,475.77l.057.177h.184l-.149.109.057.177-.149-.109-.149.109.057-.177-.149-.109h.184Z" transform="translate(-165.958 -472.293)" fill="#fff"/>
      <path id="Caminho_9011" data-name="Caminho 9011" d="M301.641,21.68l.057.177h.184l-.149.109.057.177-.149-.109-.149.109.057-.177-.149-.109h.184Z" transform="translate(-299.368 -21.68)" fill="#fff"/>
      <path id="Caminho_9012" data-name="Caminho 9012" d="M301.641,135.2l.057.177h.184l-.149.109.057.177-.149-.109-.149.109.057-.177-.149-.109h.184Z" transform="translate(-299.368 -134.331)" fill="#fff"/>
      <path id="Caminho_9013" data-name="Caminho 9013" d="M301.641,248.73l.057.177h.184l-.149.109.057.177-.149-.109-.149.109.057-.177-.149-.109h.184Z" transform="translate(-299.368 -246.992)" fill="#fff"/>
      <path id="Caminho_9014" data-name="Caminho 9014" d="M301.641,362.25l.057.177h.184l-.149.109.057.177-.149-.109-.149.109.057-.177-.149-.109h.184Z" transform="translate(-299.368 -359.642)" fill="#fff"/>
      <path id="Caminho_9015" data-name="Caminho 9015" d="M301.641,475.77l.057.177h.184l-.149.109.057.177-.149-.109-.149.109.057-.177-.149-.109h.184Z" transform="translate(-299.368 -472.293)" fill="#fff"/>
      <path id="Caminho_9016" data-name="Caminho 9016" d="M433.431,21.68l.057.177h.184l-.149.109.057.177-.149-.109-.149.109.057-.177-.149-.109h.184Z" transform="translate(-430.149 -21.68)" fill="#fff"/>
      <path id="Caminho_9017" data-name="Caminho 9017" d="M433.431,135.2l.057.177h.184l-.149.109.057.177-.149-.109-.149.109.057-.177-.149-.109h.184Z" transform="translate(-430.149 -134.331)" fill="#fff"/>
      <path id="Caminho_9018" data-name="Caminho 9018" d="M433.431,248.73l.057.177h.184l-.149.109.057.177-.149-.109-.149.109.057-.177-.149-.109h.184Z" transform="translate(-430.149 -246.992)" fill="#fff"/>
      <path id="Caminho_9019" data-name="Caminho 9019" d="M433.431,362.25l.057.177h.184l-.149.109.057.177-.149-.109-.149.109.057-.177-.149-.109h.184Z" transform="translate(-430.149 -359.642)" fill="#fff"/>
      <path id="Caminho_9020" data-name="Caminho 9020" d="M433.431,475.77l.057.177h.184l-.149.109.057.177-.149-.109-.149.109.057-.177-.149-.109h.184Z" transform="translate(-430.149 -472.293)" fill="#fff"/>
      <path id="Caminho_9021" data-name="Caminho 9021" d="M565.211,21.68l.057.177h.184l-.149.109.057.177-.149-.109-.149.109.057-.177-.149-.109h.184Z" transform="translate(-560.92 -21.68)" fill="#fff"/>
      <path id="Caminho_9022" data-name="Caminho 9022" d="M565.211,135.2l.057.177h.184l-.149.109.057.177-.149-.109-.149.109.057-.177-.149-.109h.184Z" transform="translate(-560.92 -134.331)" fill="#fff"/>
      <path id="Caminho_9023" data-name="Caminho 9023" d="M565.211,248.73l.057.177h.184l-.149.109.057.177-.149-.109-.149.109.057-.177-.149-.109h.184Z" transform="translate(-560.92 -246.992)" fill="#fff"/>
      <path id="Caminho_9024" data-name="Caminho 9024" d="M565.211,362.25l.057.177h.184l-.149.109.057.177-.149-.109-.149.109.057-.177-.149-.109h.184Z" transform="translate(-560.92 -359.642)" fill="#fff"/>
      <path id="Caminho_9025" data-name="Caminho 9025" d="M565.211,475.77l.057.177h.184l-.149.109.057.177-.149-.109-.149.109.057-.177-.149-.109h.184Z" transform="translate(-560.92 -472.293)" fill="#fff"/>
      <path id="Caminho_9026" data-name="Caminho 9026" d="M699.651,21.68l.057.177h.184l-.149.109.057.177-.149-.109-.149.109.057-.177-.149-.109h.184Z" transform="translate(-694.331 -21.68)" fill="#fff"/>
      <path id="Caminho_9027" data-name="Caminho 9027" d="M699.651,135.2l.057.177h.184l-.149.109.057.177-.149-.109-.149.109.057-.177-.149-.109h.184Z" transform="translate(-694.331 -134.331)" fill="#fff"/>
      <path id="Caminho_9028" data-name="Caminho 9028" d="M699.651,248.73l.057.177h.184l-.149.109.057.177-.149-.109-.149.109.057-.177-.149-.109h.184Z" transform="translate(-694.331 -246.992)" fill="#fff"/>
      <path id="Caminho_9029" data-name="Caminho 9029" d="M699.651,362.25l.057.177h.184l-.149.109.057.177-.149-.109-.149.109.057-.177-.149-.109h.184Z" transform="translate(-694.331 -359.642)" fill="#fff"/>
      <path id="Caminho_9030" data-name="Caminho 9030" d="M699.651,475.77l.057.177h.184l-.149.109.057.177-.149-.109-.149.109.057-.177-.149-.109h.184Z" transform="translate(-694.331 -472.293)" fill="#fff"/>
    </g>
  </g>
</svg>
